<svg xmlns="http://www.w3.org/2000/svg" viewBox="0 0 450.794 450.794"><path d="M389.247 359.879h-8.248V205.705a164.306 164.306 0 0 0 4.48-38.167c0-41.191-15.299-80.603-43.08-110.975-26.755-29.25-62.842-47.75-101.959-52.356C240.058 1.825 238.01 0 235.52 0h-29.014c-2.492 0-4.541 1.828-4.921 4.213-38.997 4.594-74.974 22.976-101.718 52.09-27.936 30.409-43.32 69.914-43.32 111.235 0 90.687 73.779 164.465 164.467 164.465 44.59 0 85.084-17.846 114.739-46.759v74.635h-8.248a5 5 0 0 0-5 5v39.122a5 5 0 0 0 5 5h.931l15.625 38.667a5 5 0 0 0 4.636 3.126h19.359a5 5 0 0 0 4.637-3.126l15.625-38.667h.93a5 5 0 0 0 5-5v-39.122a5.001 5.001 0 0 0-5.001-5zM240.52 54.603c54.594 9.343 95.092 56.92 95.092 112.934 0 63.19-51.408 114.599-114.6 114.599-63.19 0-114.599-51.408-114.599-114.599 0-56.016 40.499-103.592 95.093-112.935v30.499c-38.031 8.943-65.227 42.942-65.227 82.436 0 46.722 38.011 84.732 84.733 84.732s84.734-38.011 84.734-84.732c0-39.494-27.196-73.491-65.227-82.435V54.603zM211.507 10h19.014v78.76h-19.014V10zm-9.729 85.314c.656 1.996 2.514 3.446 4.729 3.446h29.014c2.209 0 4.061-1.442 4.723-3.427 32.479 8.594 55.504 38.072 55.504 72.205 0 41.208-33.525 74.732-74.734 74.732-41.208 0-74.733-33.525-74.733-74.732-.001-34.135 23.018-63.629 55.497-72.224zm19.236 226.689c-85.173 0-154.467-69.293-154.467-154.465 0-78.645 57.641-143.577 134.96-153.237v30.166c-60.218 9.457-105.093 61.59-105.093 123.07 0 68.704 55.895 124.599 124.599 124.599 68.705 0 124.6-55.895 124.6-124.599 0-61.479-44.874-113.616-105.092-123.073V14.298c77.271 9.672 134.959 74.723 134.959 153.24-.001 85.172-69.294 154.465-154.466 154.465zm149.985-87.005v124.881h-25.246v-85.275a164.937 164.937 0 0 0 25.246-39.606zm1.208 187.18h-27.661l-5.325-13.177h38.312l-5.326 13.177zm-7.523 18.616h-12.616l-3.481-8.616h19.579l-3.482 8.616zm19.563-41.793h-51.742v-29.122h51.742v29.122z"/></svg>