<svg xmlns="http://www.w3.org/2000/svg" viewBox="0 0 464 464"><path d="M392 128h-88.808c-3.72-18.232-19.872-32-39.192-32s-35.472 13.768-39.192 32H72c-4.424 0-8 3.576-8 8v64c0 1.04.208 2.08.616 3.056a7.922 7.922 0 0 0 1.736 2.608L192 331.312V456a7.992 7.992 0 0 0 8 8c2.08 0 4.128-.816 5.656-2.344l64-64A7.965 7.965 0 0 0 272 392v-60.688l125.648-125.648a7.922 7.922 0 0 0 1.736-2.608A7.929 7.929 0 0 0 400 200v-64c0-4.424-3.576-8-8-8zm-128-16c10.432 0 19.328 6.688 22.632 16h-45.264c3.304-9.312 12.2-16 22.632-16zm-5.656 210.344A7.965 7.965 0 0 0 256 328v60.688l-48 48V328c0-2.128-.84-4.16-2.344-5.656L91.312 208h281.376L258.344 322.344zM384 160h-24c-4.424 0-8 3.576-8 8s3.576 8 8 8h24v16H80v-16h24c4.424 0 8-3.576 8-8s-3.576-8-8-8H80v-16h304v16z"/><path d="M205.656 290.344l-64-64c-3.128-3.128-8.184-3.128-11.312 0s-3.128 8.184 0 11.312l64 64A7.978 7.978 0 0 0 200 304a7.978 7.978 0 0 0 5.656-2.344 7.991 7.991 0 0 0 0-11.312zM136 0c-22.056 0-40 17.944-40 40s17.944 40 40 40 40-17.944 40-40-17.944-40-40-40zm0 64c-13.232 0-24-10.768-24-24s10.768-24 24-24 24 10.768 24 24-10.768 24-24 24zM328 0c-22.056 0-40 17.944-40 40s17.944 40 40 40 40-17.944 40-40-17.944-40-40-40zm0 64c-13.232 0-24-10.768-24-24s10.768-24 24-24 24 10.768 24 24-10.768 24-24 24z"/></svg>