<svg xmlns="http://www.w3.org/2000/svg" viewBox="0 0 511.999 511.999"><path d="M344.808 422.429a8.685 8.685 0 0 0-12.285-.001l-21.986 21.988-6.851-18.692a8.687 8.687 0 0 0-14.3-3.153l-27.905 27.905a8.686 8.686 0 0 0-.001 12.286 8.689 8.689 0 0 0 12.286 0l18.286-18.286 6.851 18.693a8.687 8.687 0 0 0 14.3 3.153l31.605-31.606a8.69 8.69 0 0 0 0-12.287zM163.54 108c-54.408 0-98.673 44.265-98.673 98.672s44.265 98.673 98.673 98.673 98.671-44.264 98.671-98.673C262.212 152.265 217.948 108 163.54 108zm-.001 179.971c-44.829 0-81.299-36.47-81.299-81.299 0-44.828 36.47-81.299 81.299-81.299 44.828 0 81.298 36.471 81.298 81.299 0 44.828-36.47 81.299-81.298 81.299zm0-244.838a8.686 8.686 0 0 0-8.687 8.687v34.204a8.687 8.687 0 0 0 8.687 8.688 8.686 8.686 0 0 0 8.687-8.687V51.82a8.687 8.687 0 0 0-8.687-8.687zm74.029 393.584h-19.49c-25.282 0-45.852-20.569-45.852-45.852V327.32c0-4.797-3.888-8.687-8.687-8.687s-8.687 3.889-8.687 8.687v63.545c0 34.862 28.362 63.225 63.225 63.225h19.49c4.799 0 8.687-3.889 8.687-8.687s-3.888-8.686-8.686-8.686zM279.18 91.033a8.687 8.687 0 0 0-12.286 0l-24.187 24.187a8.685 8.685 0 0 0 0 12.284 8.656 8.656 0 0 0 6.142 2.545 8.658 8.658 0 0 0 6.143-2.545l24.187-24.187a8.684 8.684 0 0 0 .001-12.284zM84.373 285.84c-3.393-3.391-8.893-3.393-12.286 0l-24.188 24.187a8.686 8.686 0 0 0-.001 12.286 8.658 8.658 0 0 0 6.143 2.545 8.654 8.654 0 0 0 6.142-2.545l24.188-24.187a8.687 8.687 0 0 0 .002-12.286zm234.019-87.854h-34.206a8.687 8.687 0 0 0 0 17.374h34.206a8.687 8.687 0 0 0 0-17.374zm-275.5 0H8.687A8.686 8.686 0 0 0 0 206.673a8.687 8.687 0 0 0 8.687 8.687h34.205a8.686 8.686 0 0 0 8.687-8.687 8.686 8.686 0 0 0-8.687-8.687zm41.48-82.767L60.184 91.033c-3.391-3.393-8.892-3.391-12.284 0a8.686 8.686 0 0 0 .001 12.286l24.187 24.187a8.66 8.66 0 0 0 6.142 2.545 8.69 8.69 0 0 0 6.142-14.832zM279.18 310.028l-24.187-24.187a8.687 8.687 0 0 0-12.287 0 8.685 8.685 0 0 0 0 12.284l24.187 24.187a8.658 8.658 0 0 0 6.143 2.545 8.658 8.658 0 0 0 6.143-2.545 8.684 8.684 0 0 0 .001-12.284zm224.133-112.042h-25.839V149.47c0-4.797-3.888-8.687-8.687-8.687s-8.687 3.889-8.687 8.687v48.516h-43.785V149.47c0-4.797-3.888-8.687-8.687-8.687s-8.687 3.889-8.687 8.687v48.516h-25.839a8.686 8.686 0 0 0-8.687 8.687 8.687 8.687 0 0 0 8.687 8.687h9.069v42.909c0 27.944 20.561 51.173 47.349 55.36v77.238c0 25.282-20.569 45.852-45.852 45.852h-20.437c-4.799 0-8.687 3.889-8.687 8.687s3.888 8.687 8.687 8.687h20.437c34.863 0 63.225-28.363 63.225-63.225V313.63c26.787-4.187 47.349-27.416 47.349-55.36v-42.909h9.069a8.686 8.686 0 0 0 8.687-8.687 8.684 8.684 0 0 0-8.685-8.688zm-26.443 60.282c0 21.319-17.345 38.662-38.662 38.662s-38.662-17.344-38.662-38.662v-42.909h77.325v42.909z"/><circle cx="421.707" cy="251.698" r="8.687"/><circle cx="454.718" cy="251.698" r="8.687"/></svg>