<svg xmlns="http://www.w3.org/2000/svg" viewBox="0 0 480 480"><path d="M402.088 106.288L376 54.112V8a8 8 0 0 0-8-8H112a8 8 0 0 0-8 8v46.112l-26.088 52.176A56.228 56.228 0 0 0 72 131.336V472a8 8 0 0 0 8 8h320a8 8 0 0 0 8-8V131.336a56.228 56.228 0 0 0-5.912-25.048zM272 16h88v32h-88V16zm-48.696 43.28c.048-.096.112-.352.184-.528.285-.77.449-1.58.488-2.4 0-.112.064-.2.064-.312V16h32L256 54.112l-26.088 52.176A56.228 56.228 0 0 0 224 131.336V192h-32v-60.664a40.289 40.289 0 0 1 4.224-17.896L223.2 59.576c.048-.096.056-.2.104-.296zM120 16h88v32h-88V16zm208 115.336V464H88V131.336a40.289 40.289 0 0 1 4.224-17.896L116.944 64h86.112l-21.144 42.288A56.228 56.228 0 0 0 176 131.336V200a8 8 0 0 0 8 8h48a8 8 0 0 0 8-8v-68.664a40.289 40.289 0 0 1 4.224-17.896L268.944 64h86.112l-21.144 42.288A56.228 56.228 0 0 0 328 131.336zM392 464h-48V131.336a40.289 40.289 0 0 1 4.224-17.896L368 73.888l19.776 39.552A40.289 40.289 0 0 1 392 131.336V464z"/><path d="M218.4 260.16a100.549 100.549 0 0 0-50.032 28.24 100.547 100.547 0 0 0-28.208 50 49.345 49.345 0 0 0 11.272 46.136 45.254 45.254 0 0 0 32.864 12.64 67.467 67.467 0 0 0 13.304-1.336 100.549 100.549 0 0 0 50.032-28.24 100.547 100.547 0 0 0 28.208-50 49.345 49.345 0 0 0-11.272-46.136A49.297 49.297 0 0 0 218.4 260.16zm-62.56 81.44a84.647 84.647 0 0 1 23.872-41.856A84.652 84.652 0 0 1 221.6 275.84a51.862 51.862 0 0 1 10.064-1.04 31.388 31.388 0 0 1 18.16 5.192 57.546 57.546 0 0 1-11.384 6.88 80.795 80.795 0 0 0-37.6 37.6 56.19 56.19 0 0 1-12.568 17.736 56.388 56.388 0 0 1-17.744 12.576 74.01 74.01 0 0 0-13.912 8.416 41.772 41.772 0 0 1-.776-21.6zm104.32-27.2a84.647 84.647 0 0 1-23.872 41.856A84.652 84.652 0 0 1 194.4 380.16a36.63 36.63 0 0 1-28.272-4.112 57.78 57.78 0 0 1 11.44-6.936 72.359 72.359 0 0 0 21.976-15.608 72.178 72.178 0 0 0 15.656-21.976 64.738 64.738 0 0 1 30.304-30.304 73.82 73.82 0 0 0 13.88-8.424 41.772 41.772 0 0 1 .776 21.6z"/></svg>