<?xml version="1.0" encoding="UTF-8"?><!DOCTYPE svg PUBLIC "-//W3C//DTD SVG 1.1//EN" "http://www.w3.org/Graphics/SVG/1.1/DTD/svg11.dtd"><svg xmlns="http://www.w3.org/2000/svg"><symbol id="acessorios" viewBox="0 0 450.794 450.794"><path d="M389.247 359.879h-8.248V205.705a164.306 164.306 0 0 0 4.48-38.167c0-41.191-15.299-80.603-43.08-110.975-26.755-29.25-62.842-47.75-101.959-52.356C240.058 1.825 238.01 0 235.52 0h-29.014c-2.492 0-4.541 1.828-4.921 4.213-38.997 4.594-74.974 22.976-101.718 52.09-27.936 30.409-43.32 69.914-43.32 111.235 0 90.687 73.779 164.465 164.467 164.465 44.59 0 85.084-17.846 114.739-46.759v74.635h-8.248a5 5 0 0 0-5 5v39.122a5 5 0 0 0 5 5h.931l15.625 38.667a5 5 0 0 0 4.636 3.126h19.359a5 5 0 0 0 4.637-3.126l15.625-38.667h.93a5 5 0 0 0 5-5v-39.122a5.001 5.001 0 0 0-5.001-5zM240.52 54.603c54.594 9.343 95.092 56.92 95.092 112.934 0 63.19-51.408 114.599-114.6 114.599-63.19 0-114.599-51.408-114.599-114.599 0-56.016 40.499-103.592 95.093-112.935v30.499c-38.031 8.943-65.227 42.942-65.227 82.436 0 46.722 38.011 84.732 84.733 84.732s84.734-38.011 84.734-84.732c0-39.494-27.196-73.491-65.227-82.435V54.603zM211.507 10h19.014v78.76h-19.014V10zm-9.729 85.314c.656 1.996 2.514 3.446 4.729 3.446h29.014c2.209 0 4.061-1.442 4.723-3.427 32.479 8.594 55.504 38.072 55.504 72.205 0 41.208-33.525 74.732-74.734 74.732-41.208 0-74.733-33.525-74.733-74.732-.001-34.135 23.018-63.629 55.497-72.224zm19.236 226.689c-85.173 0-154.467-69.293-154.467-154.465 0-78.645 57.641-143.577 134.96-153.237v30.166c-60.218 9.457-105.093 61.59-105.093 123.07 0 68.704 55.895 124.599 124.599 124.599 68.705 0 124.6-55.895 124.6-124.599 0-61.479-44.874-113.616-105.092-123.073V14.298c77.271 9.672 134.959 74.723 134.959 153.24-.001 85.172-69.294 154.465-154.466 154.465zm149.985-87.005v124.881h-25.246v-85.275a164.937 164.937 0 0 0 25.246-39.606zm1.208 187.18h-27.661l-5.325-13.177h38.312l-5.326 13.177zm-7.523 18.616h-12.616l-3.481-8.616h19.579l-3.482 8.616zm19.563-41.793h-51.742v-29.122h51.742v29.122z"/></symbol><symbol id="condicionador" viewBox="0 0 512 512"><path d="M405.537 203.085l-.093-.113-43.895-61.203v-25.298h17.463a8.082 8.082 0 0 0 8.084-8.084V8.084A8.082 8.082 0 0 0 379.012 0H132.99a8.083 8.083 0 0 0-8.084 8.084v100.302a8.082 8.082 0 0 0 8.084 8.084h17.465v25.298l-43.94 61.263c-5.232 5.701-8.105 13.058-8.105 20.796V481.205c0 16.98 13.813 30.793 30.793 30.793h253.594c16.98 0 30.793-13.813 30.793-30.793V223.827c.001-7.711-2.853-15.046-8.053-20.742zM337.893 16.168h33.035v84.134h-33.035V16.168zm7.488 100.303v19.814H166.623v-19.814h178.758zM288.688 16.168h33.035v84.134h-33.035V16.168zm-49.204 0h33.035v84.134h-33.035V16.168zm-49.207 0h33.037v84.134h-33.037V16.168zm-49.203 84.134V16.168h33.035v84.134h-33.035zm256.349 292.659H189.541c-4.466 0-8.084 3.619-8.084 8.084s3.618 8.084 8.084 8.084h207.882v72.078c0 8.064-6.561 14.625-14.625 14.625H129.204c-8.065 0-14.625-6.561-14.625-14.625v-72.078h46.935c4.466 0 8.084-3.619 8.084-8.084s-3.618-8.084-8.084-8.084h-46.935V259.773h282.844v133.188zm0-149.357H114.579v-19.777c0-3.78 1.452-7.374 4.088-10.118.374-.389.702-.808.985-1.251l43.037-60.004h186.625l43.031 59.998c.283.444.613.867.988 1.256 2.637 2.748 4.09 6.341 4.09 10.121v19.775z"/></symbol><symbol id="equipamentos" viewBox="0 0 464 464"><path d="M392 128h-88.808c-3.72-18.232-19.872-32-39.192-32s-35.472 13.768-39.192 32H72c-4.424 0-8 3.576-8 8v64c0 1.04.208 2.08.616 3.056a7.922 7.922 0 0 0 1.736 2.608L192 331.312V456a7.992 7.992 0 0 0 8 8c2.08 0 4.128-.816 5.656-2.344l64-64A7.965 7.965 0 0 0 272 392v-60.688l125.648-125.648a7.922 7.922 0 0 0 1.736-2.608A7.929 7.929 0 0 0 400 200v-64c0-4.424-3.576-8-8-8zm-128-16c10.432 0 19.328 6.688 22.632 16h-45.264c3.304-9.312 12.2-16 22.632-16zm-5.656 210.344A7.965 7.965 0 0 0 256 328v60.688l-48 48V328c0-2.128-.84-4.16-2.344-5.656L91.312 208h281.376L258.344 322.344zM384 160h-24c-4.424 0-8 3.576-8 8s3.576 8 8 8h24v16H80v-16h24c4.424 0 8-3.576 8-8s-3.576-8-8-8H80v-16h304v16z"/><path d="M205.656 290.344l-64-64c-3.128-3.128-8.184-3.128-11.312 0s-3.128 8.184 0 11.312l64 64A7.978 7.978 0 0 0 200 304a7.978 7.978 0 0 0 5.656-2.344 7.991 7.991 0 0 0 0-11.312zM136 0c-22.056 0-40 17.944-40 40s17.944 40 40 40 40-17.944 40-40-17.944-40-40-40zm0 64c-13.232 0-24-10.768-24-24s10.768-24 24-24 24 10.768 24 24-10.768 24-24 24zM328 0c-22.056 0-40 17.944-40 40s17.944 40 40 40 40-17.944 40-40-17.944-40-40-40zm0 64c-13.232 0-24-10.768-24-24s10.768-24 24-24 24 10.768 24 24-10.768 24-24 24z"/></symbol><symbol id="facebook" viewBox="0 0 512 512"><path d="M256 0C114.609 0 0 114.609 0 256c0 141.391 114.609 256 256 256 141.391 0 256-114.609 256-256C512 114.609 397.391 0 256 0zm0 472c-119.297 0-216-96.703-216-216S136.703 40 256 40s216 96.703 216 216-96.703 216-216 216z"/><path d="M316.75 216.812h-44.531v-32.5c0-9.969 10.312-12.281 15.125-12.281h28.767v-43.859l-32.97-.172c-44.983 0-55.25 32.703-55.25 53.672v35.141H195.25V262h32.641v122h44.328V262h37.656l6.875-45.188z"/></symbol><symbol id="iluminacao" viewBox="0 0 511.999 511.999"><path d="M344.808 422.429a8.685 8.685 0 0 0-12.285-.001l-21.986 21.988-6.851-18.692a8.687 8.687 0 0 0-14.3-3.153l-27.905 27.905a8.686 8.686 0 0 0-.001 12.286 8.689 8.689 0 0 0 12.286 0l18.286-18.286 6.851 18.693a8.687 8.687 0 0 0 14.3 3.153l31.605-31.606a8.69 8.69 0 0 0 0-12.287zM163.54 108c-54.408 0-98.673 44.265-98.673 98.672s44.265 98.673 98.673 98.673 98.671-44.264 98.671-98.673C262.212 152.265 217.948 108 163.54 108zm-.001 179.971c-44.829 0-81.299-36.47-81.299-81.299 0-44.828 36.47-81.299 81.299-81.299 44.828 0 81.298 36.471 81.298 81.299 0 44.828-36.47 81.299-81.298 81.299zM163.539 43.133a8.686 8.686 0 0 0-8.687 8.687v34.204a8.687 8.687 0 0 0 8.687 8.688 8.686 8.686 0 0 0 8.687-8.687V51.82a8.687 8.687 0 0 0-8.687-8.687zM237.568 436.717h-19.49c-25.282 0-45.852-20.569-45.852-45.852V327.32c0-4.797-3.888-8.687-8.687-8.687s-8.687 3.889-8.687 8.687v63.545c0 34.862 28.362 63.225 63.225 63.225h19.49c4.799 0 8.687-3.889 8.687-8.687s-3.888-8.686-8.686-8.686zM279.18 91.033a8.687 8.687 0 0 0-12.286 0l-24.187 24.187a8.685 8.685 0 0 0 0 12.284 8.656 8.656 0 0 0 6.142 2.545 8.658 8.658 0 0 0 6.143-2.545l24.187-24.187a8.684 8.684 0 0 0 .001-12.284zM84.373 285.84c-3.393-3.391-8.893-3.393-12.286 0l-24.188 24.187a8.686 8.686 0 0 0-.001 12.286 8.658 8.658 0 0 0 6.143 2.545 8.654 8.654 0 0 0 6.142-2.545l24.188-24.187a8.687 8.687 0 0 0 .002-12.286zM318.392 197.986h-34.206a8.687 8.687 0 0 0 0 17.374h34.206a8.687 8.687 0 0 0 0-17.374zM42.892 197.986H8.687A8.686 8.686 0 0 0 0 206.673a8.687 8.687 0 0 0 8.687 8.687h34.205a8.686 8.686 0 0 0 8.687-8.687 8.686 8.686 0 0 0-8.687-8.687zM84.372 115.219L60.184 91.033c-3.391-3.393-8.892-3.391-12.284 0a8.686 8.686 0 0 0 .001 12.286l24.187 24.187a8.66 8.66 0 0 0 6.142 2.545 8.69 8.69 0 0 0 6.142-14.832zM279.18 310.028l-24.187-24.187a8.687 8.687 0 0 0-12.287 0 8.685 8.685 0 0 0 0 12.284l24.187 24.187a8.658 8.658 0 0 0 6.143 2.545 8.658 8.658 0 0 0 6.143-2.545 8.684 8.684 0 0 0 .001-12.284zM503.313 197.986h-25.839V149.47c0-4.797-3.888-8.687-8.687-8.687s-8.687 3.889-8.687 8.687v48.516h-43.785V149.47c0-4.797-3.888-8.687-8.687-8.687s-8.687 3.889-8.687 8.687v48.516h-25.839a8.686 8.686 0 0 0-8.687 8.687 8.687 8.687 0 0 0 8.687 8.687h9.069v42.909c0 27.944 20.561 51.173 47.349 55.36v77.238c0 25.282-20.569 45.852-45.852 45.852h-20.437c-4.799 0-8.687 3.889-8.687 8.687s3.888 8.687 8.687 8.687h20.437c34.863 0 63.225-28.363 63.225-63.225V313.63c26.787-4.187 47.349-27.416 47.349-55.36v-42.909h9.069a8.686 8.686 0 0 0 8.687-8.687 8.684 8.684 0 0 0-8.685-8.688zm-26.443 60.282c0 21.319-17.345 38.662-38.662 38.662s-38.662-17.344-38.662-38.662v-42.909h77.325v42.909z"/><circle cx="421.707" cy="251.698" r="8.687"/><circle cx="454.718" cy="251.698" r="8.687"/></symbol><symbol id="left" viewBox="0 0 284.935 284.936"><path d="M110.488 142.468L222.694 30.264c1.902-1.903 2.854-4.093 2.854-6.567s-.951-4.664-2.854-6.563L208.417 2.857C206.513.955 204.324 0 201.856 0c-2.475 0-4.664.955-6.567 2.857L62.24 135.9c-1.903 1.903-2.852 4.093-2.852 6.567 0 2.475.949 4.664 2.852 6.567l133.042 133.043c1.906 1.906 4.097 2.857 6.571 2.857 2.471 0 4.66-.951 6.563-2.857l14.277-14.267c1.902-1.903 2.851-4.094 2.851-6.57 0-2.472-.948-4.661-2.851-6.564L110.488 142.468z" fill="#FFF"/></symbol><symbol id="phone" viewBox="0 0 511.999 511.999"><path d="M498.827 377.633l-63.649-63.649c-17.548-17.547-46.102-17.547-63.649 0l-28.931 28.931c-13.294 13.294-34.926 13.29-48.215.005l-125.4-125.507c-13.325-13.325-13.327-34.892 0-48.219l28.931-28.931c17.471-17.47 17.715-45.935-.017-63.665l-63.632-63.432C116.717-4.381 88.164-4.381 70.663 13.12L47.471 36.111c-63.28 63.279-63.28 166.242-.003 229.519L246.16 464.426c63.428 63.429 166.088 63.434 229.521 0l23.146-23.145c17.548-17.548 17.548-46.1 0-63.648zM91.833 34.382c5.849-5.849 15.365-5.85 21.233.016l63.632 63.432c5.863 5.863 5.863 15.352 0 21.216l-10.609 10.608-84.81-84.81 10.554-10.462zM267.38 443.213L68.687 244.415c-48.958-48.958-51.649-125.833-8.276-178.006l84.564 84.564c-22.22 25.189-21.294 63.572 2.787 87.653l125.396 125.501.004.004c24.055 24.056 62.436 25.042 87.656 2.792l84.566 84.566c-52.007 43.298-128.709 41.019-178.004-8.276zm210.232-23.148l-10.609 10.609-84.865-84.866 10.607-10.608c5.85-5.849 15.367-5.85 21.217 0l63.649 63.649c5.85 5.85 5.85 15.368.001 21.216z" fill="#FFF"/></symbol><symbol id="racoes" viewBox="0 0 480 480"><path d="M402.088 106.288L376 54.112V8a8 8 0 0 0-8-8H112a8 8 0 0 0-8 8v46.112l-26.088 52.176A56.228 56.228 0 0 0 72 131.336V472a8 8 0 0 0 8 8h320a8 8 0 0 0 8-8V131.336a56.228 56.228 0 0 0-5.912-25.048zM272 16h88v32h-88V16zm-48.696 43.28c.048-.096.112-.352.184-.528.285-.77.449-1.58.488-2.4 0-.112.064-.2.064-.312V16h32L256 54.112l-26.088 52.176A56.228 56.228 0 0 0 224 131.336V192h-32v-60.664a40.289 40.289 0 0 1 4.224-17.896L223.2 59.576c.048-.096.056-.2.104-.296zM120 16h88v32h-88V16zm208 115.336V464H88V131.336a40.289 40.289 0 0 1 4.224-17.896L116.944 64h86.112l-21.144 42.288A56.228 56.228 0 0 0 176 131.336V200a8 8 0 0 0 8 8h48a8 8 0 0 0 8-8v-68.664a40.289 40.289 0 0 1 4.224-17.896L268.944 64h86.112l-21.144 42.288A56.228 56.228 0 0 0 328 131.336zM392 464h-48V131.336a40.289 40.289 0 0 1 4.224-17.896L368 73.888l19.776 39.552A40.289 40.289 0 0 1 392 131.336V464z"/><path d="M218.4 260.16a100.549 100.549 0 0 0-50.032 28.24 100.547 100.547 0 0 0-28.208 50 49.345 49.345 0 0 0 11.272 46.136 45.254 45.254 0 0 0 32.864 12.64 67.467 67.467 0 0 0 13.304-1.336 100.549 100.549 0 0 0 50.032-28.24 100.547 100.547 0 0 0 28.208-50 49.345 49.345 0 0 0-11.272-46.136A49.297 49.297 0 0 0 218.4 260.16zm-62.56 81.44a84.647 84.647 0 0 1 23.872-41.856A84.652 84.652 0 0 1 221.6 275.84a51.862 51.862 0 0 1 10.064-1.04 31.388 31.388 0 0 1 18.16 5.192 57.546 57.546 0 0 1-11.384 6.88 80.795 80.795 0 0 0-37.6 37.6 56.19 56.19 0 0 1-12.568 17.736 56.388 56.388 0 0 1-17.744 12.576 74.01 74.01 0 0 0-13.912 8.416 41.772 41.772 0 0 1-.776-21.6zm104.32-27.2a84.647 84.647 0 0 1-23.872 41.856A84.652 84.652 0 0 1 194.4 380.16a36.63 36.63 0 0 1-28.272-4.112 57.78 57.78 0 0 1 11.44-6.936 72.359 72.359 0 0 0 21.976-15.608 72.178 72.178 0 0 0 15.656-21.976 64.738 64.738 0 0 1 30.304-30.304 73.82 73.82 0 0 0 13.88-8.424 41.772 41.772 0 0 1 .776 21.6z"/></symbol><symbol id="right" viewBox="0 0 492.004 492.004"><path d="M382.678 226.804L163.73 7.86C158.666 2.792 151.906 0 144.698 0s-13.968 2.792-19.032 7.86l-16.124 16.12c-10.492 10.504-10.492 27.576 0 38.064L293.398 245.9l-184.06 184.06c-5.064 5.068-7.86 11.824-7.86 19.028 0 7.212 2.796 13.968 7.86 19.04l16.124 16.116c5.068 5.068 11.824 7.86 19.032 7.86s13.968-2.792 19.032-7.86L382.678 265c5.076-5.084 7.864-11.872 7.848-19.088.016-7.244-2.772-14.028-7.848-19.108z" fill="#FFF"/></symbol><symbol id="whatsapp" viewBox="0 0 90 90"><path d="M90 43.841c0 24.213-19.779 43.841-44.182 43.841a44.256 44.256 0 0 1-21.357-5.455L0 90l7.975-23.522a43.38 43.38 0 0 1-6.34-22.637C1.635 19.628 21.416 0 45.818 0 70.223 0 90 19.628 90 43.841zM45.818 6.982c-20.484 0-37.146 16.535-37.146 36.859 0 8.065 2.629 15.534 7.076 21.61L11.107 79.14l14.275-4.537A37.122 37.122 0 0 0 45.819 80.7c20.481 0 37.146-16.533 37.146-36.857S66.301 6.982 45.818 6.982zm22.311 46.956c-.273-.447-.994-.717-2.076-1.254-1.084-.537-6.41-3.138-7.4-3.495-.993-.358-1.717-.538-2.438.537-.721 1.076-2.797 3.495-3.43 4.212-.632.719-1.263.809-2.347.271-1.082-.537-4.571-1.673-8.708-5.333-3.219-2.848-5.393-6.364-6.025-7.441-.631-1.075-.066-1.656.475-2.191.488-.482 1.084-1.255 1.625-1.882.543-.628.723-1.075 1.082-1.793.363-.717.182-1.344-.09-1.883-.27-.537-2.438-5.825-3.34-7.977-.902-2.15-1.803-1.792-2.436-1.792-.631 0-1.354-.09-2.076-.09s-1.896.269-2.889 1.344c-.992 1.076-3.789 3.676-3.789 8.963 0 5.288 3.879 10.397 4.422 11.113.541.716 7.49 11.92 18.5 16.223C58.2 65.771 58.2 64.336 60.186 64.156c1.984-.179 6.406-2.599 7.312-5.107.9-2.512.9-4.663.631-5.111z" fill="#FFF"/></symbol></svg>